<mxfile host="app.diagrams.net" modified="2024-07-12T06:18:37.305Z" agent="Mozilla/5.0 (Windows NT 10.0; Win64; x64) AppleWebKit/537.36 (KHTML, like Gecko) Chrome/126.0.0.0 Safari/537.36" version="24.6.5" etag="d7H07NPexmqmRo88JzmH" type="github">
  <diagram name="Trang-1" id="dJN2J8AHptRyxSXDG8X5">
    <mxGraphModel>
      <root>
        <mxCell id="0" />
        <mxCell id="1" parent="0" />
      </root>
    </mxGraphModel>
  </diagram>
</mxfile>
